<mxfile host="app.diagrams.net" modified="2023-05-12T14:57:57.976Z" agent="Mozilla/5.0 (Windows NT 10.0; Win64; x64) AppleWebKit/537.36 (KHTML, like Gecko) Chrome/113.0.0.0 Safari/537.36" version="21.2.9" etag="TIM8EBf1BC-UhLFGncj6" type="github">
  <diagram name="Page-1" id="9L8h4A523Jz85BtybJM8">
    <mxGraphModel>
      <root>
        <mxCell id="0" />
        <mxCell id="1" parent="0" />
      </root>
    </mxGraphModel>
  </diagram>
</mxfile>
